<?xml version="1.0" encoding="utf-8"?>
<!-- Generator: Adobe Illustrator 23.1.0, SVG Export Plug-In . SVG Version: 6.00 Build 0)  -->
<svg version="1.1" id="Capa_1" xmlns="http://www.w3.org/2000/svg" xmlns:xlink="http://www.w3.org/1999/xlink" x="0px" y="0px"
	 viewBox="0 0 512 512" style="enable-background:new 0 0 512 512;" xml:space="preserve">
<style type="text/css">
	.st0{fill:url(#SVGID_1_);}
	.st1{fill:url(#SVGID_2_);}
	.st2{fill:url(#SVGID_3_);}
	.st3{fill:url(#SVGID_4_);}
	.st4{fill:url(#SVGID_5_);}
	.st5{fill:url(#SVGID_6_);}
	.st6{fill:url(#SVGID_7_);}
</style>
<g>
	<g>
		
			<linearGradient id="SVGID_1_" gradientUnits="userSpaceOnUse" x1="16.3359" y1="259.4961" x2="476.7709" y2="259.4961" gradientTransform="matrix(1.0039 0 0 -1.0039 1.6706 516.5138)">
			<stop  offset="0" style="stop-color:#FFF9DF"/>
			<stop  offset="0.593" style="stop-color:#FFE177"/>
			<stop  offset="1" style="stop-color:#FEB137"/>
		</linearGradient>
		<path class="st0" d="M459.3,239.5c-4.6-7.9-15.3-6.7-18.4,2.1c-0.1,0.2-0.1,0.4-0.2,0.6c-3.9,11.1-18.4,9.2-19.9-2.6
			C402.3,95.1,335.5,0,256,0c-0.1,0-0.3,0-0.4,0c-17.7,0.1-30.2,19.4-25,38.3c2.4,8.7,3.7,17.9,3.7,27.5
			c-0.1,50.2-36.7,91.6-81.7,92.2c-7.8,0.1-15.3-1-22.4-3.1c-10.9-3.3-22.3,3.5-25.6,15.6c-5.7,21.5-10.3,44.5-13.4,69.1
			c-1.5,11.8-16.1,13.7-19.9,2.6c-0.1-0.2-0.1-0.4-0.2-0.6c-3-8.8-13.8-10-18.4-2.1c-14.5,25-22.6,53.1-22.6,82.7
			C30.1,427,131.2,512,256,512c0.2,0,0.3,0,0.4,0c0.1,0,0.1,0,0.2,0c0.2,0,0.3,0,0.5,0c124.2-0.5,224.7-85.3,224.7-189.7
			C481.9,292.6,473.8,264.5,459.3,239.5L459.3,239.5z"/>
		
			<linearGradient id="SVGID_2_" gradientUnits="userSpaceOnUse" x1="16.3359" y1="439.0916" x2="476.7709" y2="439.0916" gradientTransform="matrix(1.0039 0 0 -1.0039 1.6706 516.5138)">
			<stop  offset="0" style="stop-color:#FFF9DF"/>
			<stop  offset="0.593" style="stop-color:#FFE177"/>
			<stop  offset="1" style="stop-color:#FEB137"/>
		</linearGradient>
		<path class="st1" d="M155.4,122.1c16,0,29-13,29-29s-13-63.8-29-63.8s-29,47.8-29,63.8C126.4,109.1,139.4,122.1,155.4,122.1z"/>
	</g>
	
		<linearGradient id="SVGID_3_" gradientUnits="userSpaceOnUse" x1="94.3359" y1="188.3476" x2="396.4419" y2="188.3476" gradientTransform="matrix(1.0039 0 0 -1.0039 1.6706 516.5138)">
		<stop  offset="0" style="stop-color:#FFE177"/>
		<stop  offset="1" style="stop-color:#FEB137"/>
	</linearGradient>
	<path class="st2" d="M405.7,350.5c0,82.7-67,149.7-149.7,149.7s-149.7-67-149.7-149.7s65.3-195.9,148-195.9
		S405.7,267.8,405.7,350.5L405.7,350.5z"/>
	
		<linearGradient id="SVGID_4_" gradientUnits="userSpaceOnUse" x1="201.6689" y1="188.3481" x2="372.8559" y2="188.3481" gradientTransform="matrix(1.0039 0 0 -1.0039 1.6706 516.5138)">
		<stop  offset="0" style="stop-color:#FFD15B"/>
		<stop  offset="1" style="stop-color:#ECA026"/>
	</linearGradient>
	<path class="st3" d="M254.2,154.6c-6.8,0-13.5,0.8-20.1,2.2c73.4,16.2,131.4,117.8,131.4,193.7s-56.4,138.6-129.6,148.4
		c6.6,0.9,13.3,1.3,20.1,1.3c82.7,0,149.7-67,149.7-149.7S336.9,154.6,254.2,154.6L254.2,154.6z"/>
	
		<linearGradient id="SVGID_5_" gradientUnits="userSpaceOnUse" x1="121.5779" y1="159.5976" x2="396.4699" y2="159.5976" gradientTransform="matrix(1.0039 0 0 -1.0039 1.6706 516.5138)">
		<stop  offset="0" style="stop-color:#FE99A0"/>
		<stop  offset="0.593" style="stop-color:#FE646F"/>
		<stop  offset="1" style="stop-color:#E41F2D"/>
	</linearGradient>
	<path class="st4" d="M376.8,366c0,66.7-54.1,120.8-120.8,120.8S135.2,432.8,135.2,366S189.3,225.7,256,225.7S376.8,299.3,376.8,366
		z"/>
	<g>
		
			<linearGradient id="SVGID_6_" gradientUnits="userSpaceOnUse" x1="68.3359" y1="259.4961" x2="415.2189" y2="259.4961" gradientTransform="matrix(1.0039 0 0 -1.0039 1.6706 516.5138)">
			<stop  offset="0" style="stop-color:#FFF9DF"/>
			<stop  offset="0.593" style="stop-color:#FFE177"/>
			<stop  offset="1" style="stop-color:#FEB137"/>
		</linearGradient>
		<path class="st5" d="M459.3,239.5c-4.6-7.9-15.3-6.7-18.4,2.1c-0.1,0.2-0.1,0.4-0.2,0.6c-3.9,11.1-18.4,9.2-19.9-2.6
			C402.3,95.1,335.5,0,256,0c-0.1,0-0.3,0-0.4,0c-4.7,0-9,1.4-12.7,3.8c67.3,18.9,121.4,108.1,137.8,235.8
			c1.5,11.8,16.1,13.6,19.9,2.6c0.1-0.2,0.1-0.4,0.2-0.6c3-8.8,13.8-10,18.4-2.1c14.5,25,22.6,53.1,22.6,82.8
			c0,99.1-90.5,180.5-205.8,189c6.6,0.5,13.3,0.8,20.1,0.8c0.2,0,0.3,0,0.4,0c0.1,0,0.1,0,0.2,0c0.2,0,0.3,0,0.5,0
			c124.2-0.5,224.7-85.3,224.7-189.7C481.9,292.6,473.8,264.5,459.3,239.5L459.3,239.5z"/>
	</g>
	
		<linearGradient id="SVGID_7_" gradientUnits="userSpaceOnUse" x1="190.3359" y1="128.6906" x2="335.5409" y2="128.6906" gradientTransform="matrix(1.0039 0 0 -1.0039 1.6706 516.5138)">
		<stop  offset="0" style="stop-color:#FE99A0"/>
		<stop  offset="0.593" style="stop-color:#FE646F"/>
		<stop  offset="1" style="stop-color:#E41F2D"/>
	</linearGradient>
	<path class="st6" d="M376.8,366c0-25.4-7.8-51.8-21.2-74.8c6.4,20.2,10,40.5,10,59.2c0,57.8-32.7,107.9-80.6,132.8
		C337.7,470.4,376.8,422.8,376.8,366z"/>
</g>
</svg>
