<?xml version="1.0" encoding="utf-8"?>
<!-- Generator: Adobe Illustrator 23.1.0, SVG Export Plug-In . SVG Version: 6.00 Build 0)  -->
<svg version="1.1" xmlns="http://www.w3.org/2000/svg" xmlns:xlink="http://www.w3.org/1999/xlink" x="0px" y="0px"
	 viewBox="0 0 595.3 841.9" style="enable-background:new 0 0 595.3 841.9;" xml:space="preserve">
<style type="text/css">
	.st0{fill:#FFFFFF;stroke:#000000;stroke-width:10;stroke-miterlimit:10;}
	.st1{stroke:#000000;stroke-width:10;stroke-miterlimit:10;}
	.st2{font-family:'MyriadPro-Regular';}
	.st3{font-size:119.2737px;}
</style>
<g id="Layer_1">
	<g>
		<circle class="st0" cx="322" cy="313.9" r="136"/>
		<path class="st1" d="M322,450.4c-75.2,0-136.5-61.2-136.5-136.5S246.8,177.5,322,177.5s136.5,61.2,136.5,136.5
			S397.3,450.4,322,450.4z M322,178.5c-74.7,0-135.5,60.8-135.5,135.5S247.3,449.4,322,449.4c74.7,0,135.5-60.8,135.5-135.5
			S396.7,178.5,322,178.5z"/>
	</g>
	<text transform="matrix(1.154 0 0 1 251.413 348.926)" class="st2 st3">89</text>
</g>
<g id="top">
	<path class="st1" d="M213.3,305.7c3.6-57.2,51.2-102.6,109.3-102.6c58.4,0,106.2,45.9,109.4,103.5c0.3,0,0.5,0,0.8-0.1
		c-3.2-58-51.4-104.2-110.2-104.2c-58.5,0-106.6,45.8-110.1,103.5C212.8,305.7,213.1,305.7,213.3,305.7z"/>
</g>
<g id="bottom">
	<path class="st1" d="M432.1,320.8c-3.6,57.7-51.6,103.5-110.1,103.5c-58.8,0-107-46.2-110.2-104.2c0.3,0,0.5,0,0.8-0.1
		c3.2,57.6,51,103.5,109.4,103.5c58.1,0,105.7-45.4,109.3-102.6C431.6,320.8,431.9,320.8,432.1,320.8z"/>
</g>
</svg>
	