<?xml version="1.0" encoding="utf-8"?>
<!-- Generator: Adobe Illustrator 23.1.0, SVG Export Plug-In . SVG Version: 6.00 Build 0)  -->
<svg version="1.1" id="Capa_1" xmlns="http://www.w3.org/2000/svg" xmlns:xlink="http://www.w3.org/1999/xlink" x="0px" y="0px"
	 viewBox="0 0 309.5 388" style="enable-background:new 0 0 309.5 388;" xml:space="preserve">
<style type="text/css">
	.st0{fill:#4ED1F9;}
	.st1{fill:#84DBFF;}
</style>
<g>
	<path class="st0" d="M309.5,270.8c0,64.8-69.2,117.2-154.7,117.2c-81,0-148.2-47.3-154.3-108.4c-0.4-2.9-0.5-5.9-0.5-8.8
		C0,160.7,154.7,0,154.7,0c41.8,43.5,78.1,89.9,108.3,138.6C289,181.8,309.5,229,309.5,270.8L309.5,270.8z"/>
	<path class="st1" d="M278,208.2c0,64.8-69.3,117.2-154.7,117.2c-48.1,0-93.5-17-122.8-45.8c-0.4-2.9-0.5-5.9-0.5-8.8
		C0,160.7,154.7,0,154.7,0c41.8,43.5,78.1,89.9,108.3,138.6C272.3,161.1,277.4,184.6,278,208.2z"/>
</g>
</svg>
