<?xml version="1.0" encoding="utf-8"?>
<!-- Generator: Adobe Illustrator 23.1.0, SVG Export Plug-In . SVG Version: 6.00 Build 0)  -->
<svg version="1.1" id="Layer_1" xmlns="http://www.w3.org/2000/svg" xmlns:xlink="http://www.w3.org/1999/xlink" x="0px" y="0px"
	 viewBox="0 0 512 427.7" style="enable-background:new 0 0 512 427.7;" xml:space="preserve">
<style type="text/css">
	.st0{fill-rule:evenodd;clip-rule:evenodd;fill:#FFF9DF;}
	.st1{fill-rule:evenodd;clip-rule:evenodd;fill:#FFF3BF;}
	.st2{fill-rule:evenodd;clip-rule:evenodd;fill:#FC7070;}
	.st3{fill:#D15A63;}
	.st4{fill-rule:evenodd;clip-rule:evenodd;fill:#FFE07D;}
	.st5{fill-rule:evenodd;clip-rule:evenodd;fill:#D3EFFB;}
	.st6{fill-rule:evenodd;clip-rule:evenodd;fill:#B1E4F9;}
	.st7{fill-rule:evenodd;clip-rule:evenodd;fill:#95D6A4;}
	.st8{fill-rule:evenodd;clip-rule:evenodd;fill:#78C2A4;}
	.st9{fill-rule:evenodd;clip-rule:evenodd;fill:#B3E59F;}
	.st10{fill-rule:evenodd;clip-rule:evenodd;fill:#FFD064;}
	.st11{fill-rule:evenodd;clip-rule:evenodd;fill:#90D8F9;}
	.st12{fill-rule:evenodd;clip-rule:evenodd;fill:#75CEF9;}
</style>
<g>
	<path class="st0" d="M300.5,0h185.9C500.5,0,512,11.5,512,25.7v376.4c0,14.1-11.5,25.6-25.6,25.6H226.9
		c-14.1,0-25.7-11.5-25.7-25.6V99.2L300.5,0z"/>
	<path class="st1" d="M456.4,0h30C500.5,0,512,11.5,512,25.7v376.4c0,14.1-11.5,25.6-25.6,25.6h-30c14.1,0,25.7-11.5,25.7-25.6V25.7
		C482,11.5,470.5,0,456.4,0L456.4,0z"/>
	<path class="st2" d="M404,145.1l29.9-4.8l31.4,4.8v142l-28,3.1L404,287L404,145.1z"/>
	<path class="st3" d="M356.6,340.8c-4.1,0-7.5-3.4-7.5-7.5s3.4-7.5,7.5-7.5h77.7v15L356.6,340.8L356.6,340.8z"/>
	<g>
		<path class="st4" d="M274.8,99.2c14.1,0,25.7-11.5,25.7-25.7c0-24.5,0-49.1,0-73.6l-99.2,99.2H274.8z"/>
		<path class="st5" d="M350.6,145.1H6c-3.3,0-6,2.7-6,6v223.7c0,3.3,2.7,6,6,6h344.6c3.3,0,6-2.7,6-6V151
			C356.6,147.7,353.9,145.1,350.6,145.1L350.6,145.1z"/>
		<path class="st6" d="M350.6,145.1h-30c3.3,0,6,2.7,6,6v223.7c0,3.3-2.7,6-6,6h30c3.3,0,6-2.7,6-6V151
			C356.6,147.7,353.9,145.1,350.6,145.1L350.6,145.1z"/>
		<path class="st7" d="M1.6,378.8c1.1,1.2,2.7,2,4.5,2h172.3L93.8,273.7c-2.9-3.7-6.4-3.6-9.3,0L1.6,378.8z"/>
		<path class="st8" d="M148.3,380.8h30L93.8,273.7c-2.9-3.7-6.4-3.6-9.3,0l-10.3,13.1L148.3,380.8z"/>
		<path class="st9" d="M89.2,380.8h261.5c1.8,0,3.3-0.8,4.5-2L227.5,217.2c-3.1-3.9-6.2-3.9-9.3,0L89.2,380.8z"/>
		<path class="st7" d="M326.6,380.8h24c1.8,0,3.3-0.8,4.5-2L227.5,217.2c-3.1-3.9-6.2-3.9-9.3,0l-10.3,13.1L326.6,380.8z"/>
	</g>
	<path class="st3" d="M427.1,145.1h15v142h-15V145.1z"/>
	<path class="st4" d="M440.9,335.9l24.4-48.9H404l24.4,48.9C431.7,342.5,437.8,342.2,440.9,335.9L440.9,335.9z"/>
	<path class="st10" d="M440.9,335.9l24.4-48.9h-30l-15.6,31.4l8.7,17.5C431.7,342.5,437.8,342.2,440.9,335.9L440.9,335.9z"/>
	<path class="st11" d="M465.3,145.1v-33.2c0-9.4-7.7-17.2-17.2-17.2h-26.9c-9.5,0-17.2,7.7-17.2,17.2v33.2H465.3z"/>
	<path class="st12" d="M465.3,145.1v-33.2c0-9.4-7.7-17.2-17.2-17.2h-26.9c-0.5,0-1,0-1.5,0.1c8.7,0.8,15.6,8.2,15.6,17.1v33.2
		L465.3,145.1z"/>
	<path class="st4" d="M89.2,237.8c16.9,0,30.7-13.8,30.7-30.7c0-16.9-13.8-30.7-30.7-30.7c-16.9,0-30.7,13.8-30.7,30.7
		C58.5,224,72.3,237.8,89.2,237.8z"/>
	<path class="st10" d="M89.2,176.4c17,0,30.7,13.7,30.7,30.7c0,17-13.7,30.7-30.7,30.7c-5.4,0-10.5-1.4-15-3.9
		c9.4-5.2,15.7-15.3,15.7-26.8s-6.3-21.5-15.7-26.8C78.6,177.8,83.7,176.4,89.2,176.4L89.2,176.4z"/>
</g>
</svg>
