<svg xmlns="http://www.w3.org/2000/svg" viewBox="0 0 200 200"><defs><style>.cls-1,.cls-3{fill:#fff;}.cls-2{fill:#050505;}.cls-3{stroke:#000;stroke-miterlimit:10;}.cls-4{font-size:13px;font-family:Courier;}</style></defs><title>info-medal</title><g id="background"><circle class="cls-1" cx="100" cy="100" r="99.5"/><path class="cls-2" d="M100,1A99,99,0,1,1,1,100,99.11,99.11,0,0,1,100,1m0-1A100,100,0,1,0,200,100,100,100,0,0,0,100,0Z"/></g><g id="cross"><line class="cls-3" x1="100" x2="100" y2="200"/><line class="cls-3" y1="100" x2="200" y2="100"/></g><g id="inner_circle" data-name="inner circle"><circle cx="100" cy="100" r="40"/></g><g id="text_Q2" data-name="text Q2"><text class="cls-4" transform="matrix(0.99, 0.17, -0.17, 0.99, 112.05, 16.78)">W</text><text class="cls-4" transform="matrix(0.96, 0.27, -0.27, 0.96, 120.29, 18.22)">A</text><text class="cls-4" transform="matrix(0.93, 0.37, -0.37, 0.93, 128.34, 20.5)">T</text><text class="cls-4" transform="translate(136.1 23.59) rotate(27.4)">E</text><text class="cls-4" transform="matrix(0.84, 0.55, -0.55, 0.84, 143.54, 27.48)">R</text><text class="cls-4" transform="translate(150.51 32.09) rotate(39.13)"> </text><text class="cls-4" transform="translate(156.99 37.4) rotate(44.96)">C</text><text class="cls-4" transform="translate(163.11 43.57) rotate(51)">O</text><text class="cls-4" transform="translate(168.53 50.34) rotate(57.06)">N</text><text class="cls-4" transform="translate(173.21 57.65) rotate(63.14)">T</text><text class="cls-4" transform="translate(177.09 65.43) rotate(69.27)">E</text><text class="cls-4" transform="matrix(0.25, 0.97, -0.97, 0.25, 180.13, 73.58)">N</text><text class="cls-4" transform="translate(182.27 81.98) rotate(81.53)">T</text></g><g id="text_Q3" data-name="text Q3"><text class="cls-4" transform="translate(133.17 185.93) rotate(-23.56)">W</text><text class="cls-4" transform="translate(141.48 182.23) rotate(-29.25)">I</text><text class="cls-4" transform="translate(149.38 177.74) rotate(-34.9)">K</text><text class="cls-4" transform="translate(156.8 172.48) rotate(-40.54)">I</text><text class="cls-4" transform="translate(163.66 166.54) rotate(-46.15)">P</text><text class="cls-4" transform="matrix(0.62, -0.79, 0.79, 0.62, 169.9, 159.95)">E</text><text class="cls-4" transform="matrix(0.54, -0.84, 0.84, 0.54, 175.46, 152.79)">D</text><text class="cls-4" transform="matrix(0.45, -0.89, 0.89, 0.45, 180.31, 145.08)">I</text><text class="cls-4" transform="matrix(0.36, -0.93, 0.93, 0.36, 184.37, 136.95)">A</text></g><g id="text_Q4" data-name="text Q4"><text class="cls-4" transform="matrix(0.09, 1, -1, 0.09, 8.03, 104.67)">S</text><text class="cls-4" transform="translate(8.93 113.73) rotate(79.06)">E</text><text class="cls-4" transform="translate(10.72 122.64) rotate(73.37)">R</text><text class="cls-4" transform="matrix(0.38, 0.92, -0.92, 0.38, 13.38, 131.33)">V</text><text class="cls-4" transform="matrix(0.47, 0.88, -0.88, 0.47, 16.89, 139.71)">I</text><text class="cls-4" transform="matrix(0.55, 0.83, -0.83, 0.55, 21.22, 147.7)">N</text><text class="cls-4" transform="matrix(0.63, 0.77, -0.77, 0.63, 26.3, 155.21)">G</text><text class="cls-4" transform="matrix(0.71, 0.71, -0.71, 0.71, 32.1, 162.19)"> </text><text class="cls-4" transform="matrix(0.77, 0.64, -0.64, 0.77, 38.55, 168.58)">U</text><text class="cls-4" transform="translate(45.61 174.31) rotate(33.83)">N</text><text class="cls-4" transform="matrix(0.88, 0.47, -0.47, 0.88, 53.2, 179.32)">I</text><text class="cls-4" transform="translate(61.23 183.55) rotate(22.49)">T</text><text class="cls-4" transform="translate(69.67 186.97) rotate(16.78)"> </text><text class="cls-4" transform="translate(78.4 189.54) rotate(11.07)">g</text><text class="cls-4" transform="translate(87.33 191.22) rotate(5.41)">r</text></g><g id="text_Q1" data-name="text Q1"><text class="cls-4" transform="matrix(0.12, -0.99, 0.99, 0.12, 16.38, 92.06)">C</text><text class="cls-4" transform="translate(17.41 83.74) rotate(-77.29)">A</text><text class="cls-4" transform="matrix(0.32, -0.95, 0.95, 0.32, 19.27, 75.6)">L</text><text class="cls-4" transform="matrix(0.42, -0.91, 0.91, 0.42, 21.98, 67.66)">O</text><text class="cls-4" transform="translate(25.47 60.07) rotate(-59.6)">R</text><text class="cls-4" transform="matrix(0.59, -0.81, 0.81, 0.59, 29.73, 52.86)">I</text><text class="cls-4" transform="translate(34.72 46.12) rotate(-47.9)">E</text><text class="cls-4" transform="matrix(0.74, -0.67, 0.67, 0.74, 40.33, 39.95)">S</text><text class="cls-4" transform="translate(46.57 34.35) rotate(-36.26)"> </text><text class="cls-4" transform="translate(53.35 29.42) rotate(-30.4)">1</text><text class="cls-4" transform="translate(60.56 25.21) rotate(-24.53)">0</text><text class="cls-4" transform="translate(68.19 21.77) rotate(-18.62)">0</text><text class="cls-4" transform="translate(76.13 19.12) rotate(-12.71)">g</text><text class="cls-4" transform="matrix(0.99, -0.12, 0.12, 0.99, 84.3, 17.31)">r</text></g></svg>