<svg xmlns="http://www.w3.org/2000/svg" viewBox="0 0 200 200"><defs><style>.cls-1,.cls-3{fill:#fff;}.cls-2{fill:#050505;}.cls-3{stroke:#000;stroke-miterlimit:10;}.cls-4{font-size:13px;}.cls-4,.cls-5,.cls-6{font-family:Courier;}.cls-5{font-size:22px;letter-spacing:-0.06em;}.cls-6{font-size:10px;letter-spacing:0.09em;}</style></defs><title>info-medal</title><g id="background"><circle class="cls-1" cx="100" cy="100" r="99.5"/><path class="cls-2" d="M100,1A99,99,0,1,1,1,100,99.11,99.11,0,0,1,100,1m0-1A100,100,0,1,0,200,100,100,100,0,0,0,100,0Z"/></g><g id="cross"><line class="cls-3" x1="100" x2="100" y2="200"/><line class="cls-3" y1="100" x2="200" y2="100"/></g><g id="inner_circle" data-name="inner circle"><circle cx="99" cy="100" r="31"/></g><g id="text_Q2" data-name="text Q2"><text class="cls-4" transform="translate(138.58 27.82) rotate(30.92)">W</text><text class="cls-4" transform="matrix(0.8, 0.6, -0.6, 0.8, 146, 32.32)">A</text><text class="cls-4" transform="matrix(0.73, 0.68, -0.68, 0.73, 152.92, 37.58)">T</text><text class="cls-4" transform="matrix(0.65, 0.76, -0.76, 0.65, 159.24, 43.55)">E</text><text class="cls-4" transform="translate(164.89 50.14) rotate(55.14)">R</text><text class="cls-5" transform="translate(119.27 64.26)">84%</text></g><g id="text_Q3" data-name="text Q3"><text class="cls-4" transform="translate(149.7 171.13) rotate(-37.56)">M</text><text class="cls-4" transform="translate(156.96 165.46) rotate(-43.61)">O</text><text class="cls-4" transform="matrix(0.65, -0.76, 0.76, 0.65, 163.57, 159.06)">R</text><text class="cls-4" transform="translate(169.46 152.01) rotate(-55.7)">E</text><path d="M156.26,129l-6.2,0v.67a2.55,2.55,0,0,1,2.29,1.37l-5.93,13.69c-.29-.68-3-6.8-3.36-7.59l2.87-5.95a3.59,3.59,0,0,1,2.82-1.53V129h-6c0,.16,0,.49,0,.65,1.68,0,2.28.42,1.88,1.43-.66,1.51-2.06,4.37-2.33,4.89-.85-1.78-1.39-3.15-2.32-5.08-.4-.89.48-1.24,1.42-1.26V129l-6.9,0c0,.29,0,.46,0,.67,1,0,2.21.12,2.71,1,.66,1.28,2.86,6.38,3.52,7.75-.85,1.63-2.91,5.48-3.65,6.93-1.06-2.35-5-11.6-6.08-14-.41-1,1.18-1.61,2.1-1.65V129h-7.85c0,.2,0,.54,0,.69,1.27,0,3.13,2.08,3.66,3.38,2.3,5.31,4.66,10.6,6.94,15.92a5.77,5.77,0,0,0,.72,0c1.49-3.05,3.23-6.26,4.81-9.35l4,9.36H146c2.52-5.76,6.29-14.58,7.52-17.37a2.85,2.85,0,0,1,2.7-2V129Z"/></g><g id="text_Q4" data-name="text Q4"><text class="cls-4" transform="translate(20.63 135.12) rotate(63.51)">S</text><text class="cls-4" transform="translate(24.8 143.32) rotate(57.42)">E</text><text class="cls-4" transform="translate(29.81 151.03) rotate(51.37)">R</text><text class="cls-4" transform="translate(35.62 158.17) rotate(45.32)">V</text><text class="cls-4" transform="translate(42.15 164.67) rotate(39.28)">I</text><text class="cls-4" transform="translate(49.34 170.45) rotate(33.2)">N</text><text class="cls-4" transform="matrix(0.89, 0.46, -0.46, 0.89, 57.07, 175.42)">G</text><text class="cls-5" transform="translate(46.67 148.42)">300</text><text class="cls-6" transform="translate(84.12 148.05)">gr</text></g><g id="text_Q1" data-name="text Q1"><text class="cls-4" transform="translate(24.75 67.8) rotate(-64.05)">C</text><text class="cls-4" transform="matrix(0.53, -0.85, 0.85, 0.53, 28.59, 60.01)">A</text><text class="cls-4" transform="matrix(0.62, -0.79, 0.79, 0.62, 33.25, 52.66)">L</text><text class="cls-4" transform="matrix(0.7, -0.72, 0.72, 0.7, 38.65, 45.85)">O</text><text class="cls-4" transform="matrix(0.77, -0.64, 0.64, 0.77, 44.73, 39.66)">R</text><text class="cls-4" transform="matrix(0.83, -0.56, 0.56, 0.83, 51.42, 34.14)">I</text><text class="cls-4" transform="matrix(0.89, -0.46, 0.46, 0.89, 58.68, 29.35)">E</text><text class="cls-4" transform="matrix(0.93, -0.37, 0.37, 0.93, 66.4, 25.36)">S</text><g id="inner_text" data-name="inner text"><text class="cls-5" transform="translate(46.27 64.26)">300</text></g></g></svg>