<?xml version="1.0" encoding="iso-8859-1"?>
<!-- Generator: Adobe Illustrator 16.0.0, SVG Export Plug-In . SVG Version: 6.00 Build 0)  -->
<!DOCTYPE svg PUBLIC "-//W3C//DTD SVG 1.1//EN" "http://www.w3.org/Graphics/SVG/1.1/DTD/svg11.dtd">
<svg version="1.1" id="Capa_1" xmlns="http://www.w3.org/2000/svg" xmlns:xlink="http://www.w3.org/1999/xlink" x="0px" y="0px"
	 width="94px" height="94px" viewBox="0 0 94 94" style="enable-background:new 0 0 94 94;" xml:space="preserve">
<g>
	<path d="M89,0H5C2.238,0,0,2.238,0,5v84c0,2.762,2.238,5,5,5h84c2.762,0,5-2.238,5-5V5C94,2.238,91.762,0,89,0z M86.238,23.37
		c-3.441,0.104-5.572,1.945-6.842,4.961C76.27,35.39,66.715,57.752,60.338,72.328c-0.008,0.005-1.672-0.005-1.676-0.008
		L48.604,48.634c-3.981,7.82-8.396,15.941-12.173,23.675c-0.021,0.041-1.826,0.018-1.828-0.007
		c-5.773-13.476-11.762-26.86-17.563-40.325c-1.346-3.292-6.057-8.584-9.279-8.556c-0.004-0.381-0.021-1.234-0.023-1.751h19.877
		l-0.016,1.72c-2.334,0.109-6.365,1.599-5.322,4.175c2.803,6.05,12.721,29.484,15.404,35.432c1.871-3.66,7.094-13.421,9.244-17.547
		c-1.686-3.462-7.258-16.381-8.93-19.634c-1.26-2.12-4.42-2.382-6.857-2.418c0.002-0.546,0.031-0.963,0.018-1.708l17.475,0.056
		v1.587c-2.365,0.065-4.605,0.945-3.594,3.206c2.353,4.881,3.728,8.352,5.885,12.866c0.69-1.322,4.222-8.567,5.904-12.396
		c1.021-2.539-0.502-3.493-4.759-3.606c0.056-0.42,0.021-1.259,0.056-1.659l15.09,0.014l0.009,1.577
		c-2.771,0.106-5.642,1.584-7.144,3.879l-7.267,15.07c0.799,1.994,7.783,17.514,8.521,19.237l15.026-34.678
		c-1.069-2.807-4.479-3.435-5.812-3.466c0.008-0.446,0.01-1.128,0.014-1.698l15.683,0.046l0.022,0.078L86.238,23.37z"/>
</g>
<g>
</g>
<g>
</g>
<g>
</g>
<g>
</g>
<g>
</g>
<g>
</g>
<g>
</g>
<g>
</g>
<g>
</g>
<g>
</g>
<g>
</g>
<g>
</g>
<g>
</g>
<g>
</g>
<g>
</g>
</svg>
