<?xml version="1.0" encoding="iso-8859-1"?>
<!-- Generator: Adobe Illustrator 19.0.0, SVG Export Plug-In . SVG Version: 6.00 Build 0)  -->
<svg version="1.1" id="Layer_1" xmlns="http://www.w3.org/2000/svg" xmlns:xlink="http://www.w3.org/1999/xlink" x="0px" y="0px"
	 viewBox="0 0 512.307 512.307" style="enable-background:new 0 0 512.307 512.307;" xml:space="preserve">
<path style="fill:#334A5E;" d="M405.487,286.294c-98.133,25.6-200.533,25.6-298.667,0c0-51.2,0-102.4,0-152.533
	c98.133-25.6,200.533-25.6,298.667,0C405.487,183.894,405.487,235.094,405.487,286.294z"/>
<g>
	<path style="fill:#40596B;" d="M129.22,111.361c50.133,13.867,75.733,69.333,53.333,116.267L126.02,367.361
		c-13.867,28.8-45.867,42.667-76.8,34.133s-51.2-37.333-49.067-68.267l22.4-149.333C27.887,132.694,79.087,97.494,129.22,111.361z"
		/>
	<circle style="fill:#40596B;" cx="187.887" cy="278.827" r="59.733"/>
</g>
<circle style="fill:#4CDBC4;" cx="187.887" cy="278.827" r="41.6"/>
<circle style="fill:#334A5E;" cx="106.82" cy="192.427" r="60.8"/>
<g>
	<polygon style="fill:#4CDBC4;" points="106.82,183.894 117.487,173.227 117.487,149.761 96.154,149.761 96.154,173.227 	"/>
	<polygon style="fill:#4CDBC4;" points="98.287,192.427 87.62,181.761 64.154,181.761 64.154,202.027 87.62,202.027 	"/>
	<polygon style="fill:#4CDBC4;" points="106.82,199.894 96.154,210.561 96.154,234.027 117.487,234.027 117.487,210.561 	"/>
	<polygon style="fill:#4CDBC4;" points="124.954,181.761 114.287,192.427 124.954,202.027 148.42,202.027 148.42,181.761 	"/>
</g>
<g>
	<path style="opacity:0.1;fill:#231F20;enable-background:new    ;" d="M153.754,286.294c0-23.467,19.2-41.6,41.6-41.6
		c9.6,0,18.133,3.2,25.6,8.533c-7.467-9.6-19.2-16-33.067-16c-23.467,0-41.6,19.2-41.6,41.6c0,13.867,6.4,25.6,16,33.067
		C156.954,305.494,153.754,295.894,153.754,286.294z"/>
	<path style="opacity:0.1;fill:#231F20;enable-background:new    ;" d="M56.687,204.161c0-34.133,27.733-61.867,61.867-61.867
		c13.867,0,27.733,5.333,37.333,12.8c-11.733-14.933-28.8-24.533-49.067-24.533c-34.133,0-61.867,27.733-61.867,61.867
		c0,20.267,9.6,37.333,24.533,49.067C62.02,230.827,56.687,218.027,56.687,204.161z"/>
</g>
<g>
	<path style="fill:#40596B;" d="M383.087,111.361c-50.133,13.867-75.733,69.333-53.333,116.267l56.533,139.733
		c13.867,28.8,45.867,42.667,76.8,34.133s51.2-37.333,49.067-68.267l-22.4-149.333C484.42,132.694,433.22,97.494,383.087,111.361z"
		/>
	<circle style="fill:#40596B;" cx="324.42" cy="278.827" r="59.733"/>
</g>
<circle style="fill:#4CDBC4;" cx="324.42" cy="278.827" r="41.6"/>
<circle style="fill:#334A5E;" cx="405.487" cy="192.427" r="60.8"/>
<circle style="fill:#F8B64C;" cx="405.487" cy="159.361" r="12.8"/>
<circle style="fill:#FFD15C;" cx="405.487" cy="224.427" r="12.8"/>
<g>
	<circle style="fill:#FF7058;" cx="438.554" cy="192.427" r="12.8"/>
	<circle style="fill:#FF7058;" cx="372.42" cy="192.427" r="12.8"/>
</g>
<g>
	<path style="opacity:0.1;fill:#231F20;enable-background:new    ;" d="M289.22,286.294c0-23.467,19.2-41.6,41.6-41.6
		c9.6,0,18.133,3.2,25.6,8.533c-7.467-9.6-19.2-16-33.067-16c-23.467,0-41.6,19.2-41.6,41.6c0,13.867,6.4,25.6,16,33.067
		C293.487,305.494,289.22,295.894,289.22,286.294z"/>
	<path style="opacity:0.1;fill:#231F20;enable-background:new    ;" d="M355.354,204.161c0-34.133,27.733-61.867,61.867-61.867
		c13.867,0,27.733,5.333,37.333,12.8c-11.733-14.933-28.8-24.533-49.067-24.533c-34.133,0-61.867,27.733-61.867,61.867
		c0,20.267,9.6,37.333,24.533,49.067C360.687,230.827,355.354,218.027,355.354,204.161z"/>
</g>
<g>
	<path style="fill:#CDD6E0;" d="M234.82,157.227h-18.133c-3.2,0-6.4,3.2-6.4,6.4s3.2,7.467,6.4,7.467h18.133c3.2,0,6.4-3.2,6.4-6.4
		C241.22,161.494,238.02,157.227,234.82,157.227z"/>
	<path style="fill:#CDD6E0;" d="M295.62,157.227h-18.133c-3.2,0-6.4,3.2-6.4,6.4s3.2,7.467,6.4,7.467h18.133c3.2,0,6.4-3.2,6.4-6.4
		C302.02,161.494,298.82,157.227,295.62,157.227z"/>
</g>
<g>
</g>
<g>
</g>
<g>
</g>
<g>
</g>
<g>
</g>
<g>
</g>
<g>
</g>
<g>
</g>
<g>
</g>
<g>
</g>
<g>
</g>
<g>
</g>
<g>
</g>
<g>
</g>
<g>
</g>
</svg>
