<?xml version="1.0" encoding="utf-8"?>
<!-- Generator: Adobe Illustrator 23.1.0, SVG Export Plug-In . SVG Version: 6.00 Build 0)  -->
<svg version="1.1" id="Capa_1" xmlns="http://www.w3.org/2000/svg" xmlns:xlink="http://www.w3.org/1999/xlink" x="0px" y="0px"
	 viewBox="0 0 512 512" style="enable-background:new 0 0 512 512;" xml:space="preserve">
<style type="text/css">
	.recycle-st0{fill:#EC7724;}
	.recycle-st1{fill:#B4252D;}
	.recycle-st2{fill:#EA5653;}
	.recycle-st3{fill:#D4524C;}
	.recycle-st4{fill:#E8EDBC;}
</style>
<polygon class="recycle-st0" points="329.1,58.1 299.1,58.1 299.1,30 212.9,30 212.9,58.1 182.9,58.1 182.9,0 329.1,0 "/>
<polygon class="recycle-st1" points="329.1,58.1 299.1,58.1 299.1,30 256,30 256,0 329.1,0 "/>
<polygon class="recycle-st2" points="79.1,124.9 111.6,512 400.4,512 432.9,124.9 "/>
<polygon class="recycle-st0" points="256,124.9 256,512 400.4,512 432.9,124.9 "/>
<rect x="61.2" y="50.7" class="recycle-st1" width="389.5" height="81.8"/>
<rect x="256" y="50.7" class="recycle-st3" width="194.8" height="81.8"/>
<g>
	<path class="recycle-st4" d="M175.2,225.8c6.5-6.5,17.3-6.5,23.9,0.1l138.4,138.4c6.6,6.6,6.7,17.4,0.1,23.9s-17.3,6.5-23.9-0.1
		L175.3,249.7C168.7,243.1,168.7,232.3,175.2,225.8z"/>
</g>
<g>
	<path class="recycle-st4" d="M337.7,227.2c6.5,6.5,6.5,17.3-0.1,23.9L199.1,389.6c-6.6,6.6-17.4,6.7-23.9,0.1s-6.5-17.3,0.1-23.9
		l138.4-138.4C320.4,220.7,331.1,220.7,337.7,227.2z"/>
</g>
</svg>
