<?xml version="1.0" encoding="iso-8859-1"?>
<!-- Generator: Adobe Illustrator 19.0.0, SVG Export Plug-In . SVG Version: 6.00 Build 0)  -->
<svg version="1.1" id="Capa_1" xmlns="http://www.w3.org/2000/svg" xmlns:xlink="http://www.w3.org/1999/xlink" x="0px" y="0px"
	 viewBox="0 0 512 512" style="enable-background:new 0 0 512 512;" xml:space="preserve">
<polygon style="fill:#8ADB53;" points="329.068,58.146 299.068,58.146 299.068,30 212.932,30 212.932,58.146 182.932,58.146 
	182.932,0 329.068,0 "/>
<polygon style="fill:#4FC16E;" points="329.068,58.146 299.068,58.146 299.068,30 256,30 256,0 329.068,0 "/>
<polygon style="fill:#C3EA21;" points="79.121,124.896 111.582,512 400.418,512 432.879,124.896 "/>
<polygon style="fill:#8ADB53;" points="256,124.896 256,512 400.418,512 432.879,124.896 "/>
<rect x="61.25" y="50.72" style="fill:#4FC16E;" width="389.5" height="81.75"/>
<rect x="256" y="50.72" style="fill:#369151;" width="194.75" height="81.75"/>
<path style="fill:#4FC16E;" d="M243.353,292.9l23.304-60.249l-60.25-23.303l-10.822,27.98l10.628,4.11
	c-22.412,15.778-36.861,41.841-36.861,70.909c0,33.339,18.609,63.167,48.567,77.846l13.199-26.94
	c-19.595-9.601-31.767-29.106-31.767-50.905c0-17.866,8.337-34.002,21.503-44.44l-5.481,14.171L243.353,292.9z"/>
<path style="fill:#369151;" d="M342.649,312.55c0-33.339-18.609-63.168-48.567-77.846l-13.199,26.94
	c19.595,9.601,31.767,29.106,31.767,50.906c0,17.865-8.337,34.001-21.503,44.44l5.481-14.171l-27.98-10.822l-23.304,60.25
	l60.25,23.303l10.822-27.98l-10.628-4.11C328.201,367.68,342.649,341.617,342.649,312.55z"/>
<g>
</g>
<g>
</g>
<g>
</g>
<g>
</g>
<g>
</g>
<g>
</g>
<g>
</g>
<g>
</g>
<g>
</g>
<g>
</g>
<g>
</g>
<g>
</g>
<g>
</g>
<g>
</g>
<g>
</g>
</svg>
